#tb 0: 1/25
#media_type 0: video
#codec_id 0: rawvideo
#dimensions 0: 352x288
#sar 0: 0/1
0,          0,          0,        1,   405504, 0x15ebbf2f
0,          1,          1,        1,   405504, 0xe70afa01
0,          2,          2,        1,   405504, 0x1b3360bd
0,          3,          3,        1,   405504, 0xde4de50a
0,          4,          4,        1,   405504, 0x69a331a6
0,          5,          5,        1,   405504, 0xd67e8ca8
0,          6,          6,        1,   405504, 0x23344d21
0,          7,          7,        1,   405504, 0x96c016ad
0,          8,          8,        1,   405504, 0x67d26e68
0,          9,          9,        1,   405504, 0xf77d19d4
0,         10,         10,        1,   405504, 0x7f47d051
0,         11,         11,        1,   405504, 0xfd7a0bc1
0,         12,         12,        1,   405504, 0xd43166a5
0,         13,         13,        1,   405504, 0x26fa5480
0,         14,         14,        1,   405504, 0x09f9d11e
0,         15,         15,        1,   405504, 0x6751cd41
0,         16,         16,        1,   405504, 0x3b14af91
0,         17,         17,        1,   405504, 0x3a6eb329
0,         18,         18,        1,   405504, 0x5186d911
0,         19,         19,        1,   405504, 0x50f6d812
0,         20,         20,        1,   405504, 0xd64c1cbd
0,         21,         21,        1,   405504, 0xf4ec0541
0,         22,         22,        1,   405504, 0xeb3be71e
0,         23,         23,        1,   405504, 0x67ace182
0,         24,         24,        1,   405504, 0x2e9c4b58
0,         25,         25,        1,   405504, 0x1a63b8d7
0,         26,         26,        1,   405504, 0xf750a122
0,         27,         27,        1,   405504, 0x95d9f43a
0,         28,         28,        1,   405504, 0xa4f3ebbe
0,         29,         29,        1,   405504, 0x6e538037
0,         30,         30,        1,   405504, 0x47d6e7d8
0,         31,         31,        1,   405504, 0x804fb669
0,         32,         32,        1,   405504, 0x11f315b8
0,         33,         33,        1,   405504, 0x17a5f737
0,         34,         34,        1,   405504, 0x6bf6f1ae
0,         35,         35,        1,   405504, 0xa70e4454
0,         36,         36,        1,   405504, 0x819e4d6c
0,         37,         37,        1,   405504, 0xdafef355
0,         38,         38,        1,   405504, 0x837d964c
0,         39,         39,        1,   405504, 0xe646d38e
0,         40,         40,        1,   405504, 0x4fecde52
0,         41,         41,        1,   405504, 0xecc71056
0,         42,         42,        1,   405504, 0xb646d1d0
0,         43,         43,        1,   405504, 0x686babdf
0,         44,         44,        1,   405504, 0xc69bdcd6
0,         45,         45,        1,   405504, 0xfd646c77
0,         46,         46,        1,   405504, 0xc3686d55
0,         47,         47,        1,   405504, 0xdbae5ace
0,         48,         48,        1,   405504, 0x04ac0ffb
0,         49,         49,        1,   405504, 0x848b9300
